<?xml version="1.0" encoding="utf-8"?>
<!-- Generator: Adobe Illustrator 25.4.5, SVG Export Plug-In . SVG Version: 6.00 Build 0)  -->
<svg version="1.1" id="Layer_1" xmlns="http://www.w3.org/2000/svg" xmlns:xlink="http://www.w3.org/1999/xlink" x="0px" y="0px"
	 viewBox="0 0 360 360" style="enable-background:new 0 0 360 360;" xml:space="preserve">
<style type="text/css">
	.st0{fill:none;stroke:#B1B3B6;stroke-width:0.25;stroke-miterlimit:10;}
	.st1{fill:#D1D3D4;}
	.st2{font-family:'Futura-Medium';}
	.st3{font-size:24px;}
</style>
<polyline class="st0" points="246.56,125.53 239.28,98.05 198.14,78.95 117.42,5.23 112.8,89.83 107.8,168.95 193.67,245.76 
	256.04,200.33 198.14,78.95 112.8,89.83 "/>
<circle class="st1" cx="117.42" cy="5.23" r="4.43"/>
<circle class="st1" cx="239.28" cy="98.05" r="3.23"/>
<circle class="st1" cx="107.81" cy="168.95" r="3.76"/>
<circle class="st1" cx="198.62" cy="78.95" r="4.95"/>
<circle class="st1" cx="246.56" cy="125.53" r="3.6"/>
<circle class="st1" cx="120.62" cy="145.13" r="3.21"/>
<circle class="st1" cx="141.47" cy="145.13" r="3.45"/>
<circle class="st1" cx="112.8" cy="89.83" r="4.99"/>
<circle class="st1" cx="256.04" cy="200.33" r="2.96"/>
<circle class="st1" cx="193.67" cy="245.76" r="4.47"/>
<circle class="st1" cx="134.79" cy="168.95" r="3.23"/>
<text transform="matrix(1 0 0 1 142.3558 352.6604)" class="st1 st2 st3">Auriga</text>
</svg>
