<?xml version="1.0" encoding="utf-8"?>
<!-- Generator: Adobe Illustrator 25.4.5, SVG Export Plug-In . SVG Version: 6.00 Build 0)  -->
<svg version="1.1" id="Layer_1" xmlns="http://www.w3.org/2000/svg" xmlns:xlink="http://www.w3.org/1999/xlink" x="0px" y="0px"
	 viewBox="0 0 360 360" style="enable-background:new 0 0 360 360;" xml:space="preserve">
<style type="text/css">
	.st0{fill:none;stroke:#B1B3B6;stroke-width:0.25;stroke-miterlimit:10;}
	.st1{fill:#D1D3D4;}
	.st2{font-family:'Futura-Medium';}
	.st3{font-size:24px;}
</style>
<polyline class="st0" points="260.16,77.25 194.71,54.05 170.33,57.04 173.36,3.43 135.1,48.65 170.33,57.04 194.71,54.05 
	148.95,141.78 132.83,172.94 111.37,192.5 95.8,209.45 111.37,192.5 132.83,172.94 151.36,190.69 161.15,204.43 183.81,243.87 
	161.15,204.43 261.47,219.46 "/>
<circle class="st1" cx="194.71" cy="54.05" r="3.62"/>
<circle class="st1" cx="173.36" cy="3.43" r="2.01"/>
<circle class="st1" cx="135.1" cy="48.65" r="1.99"/>
<circle class="st1" cx="151.36" cy="190.69" r="1.81"/>
<circle class="st1" cx="183.81" cy="243.87" r="2.61"/>
<circle class="st1" cx="161.15" cy="204.43" r="2.81"/>
<circle class="st1" cx="261.47" cy="219.46" r="2.31"/>
<circle class="st1" cx="148.95" cy="141.78" r="2.42"/>
<circle class="st1" cx="111.37" cy="192.5" r="1.61"/>
<circle class="st1" cx="95.8" cy="209.45" r="2.2"/>
<circle class="st1" cx="260.16" cy="77.25" r="2.42"/>
<circle class="st1" cx="132.83" cy="172.94" r="3.42"/>
<text transform="matrix(1 0 0 1 108.5979 350.9123)" class="st1 st2 st3">Canis Major</text>
<circle class="st1" cx="170.33" cy="57.04" r="1.99"/>
</svg>
