<?xml version="1.0" encoding="utf-8"?>
<!-- Generator: Adobe Illustrator 25.4.5, SVG Export Plug-In . SVG Version: 6.00 Build 0)  -->
<svg version="1.1" id="Layer_1" xmlns="http://www.w3.org/2000/svg" xmlns:xlink="http://www.w3.org/1999/xlink" x="0px" y="0px"
	 viewBox="0 0 360 360" style="enable-background:new 0 0 360 360;" xml:space="preserve">
<style type="text/css">
	.st0{fill:none;stroke:#A6A6A6;stroke-width:0.25;stroke-miterlimit:10;}
	.st1{fill:#D1D3D4;}
	.st2{font-family:'Futura-Medium';}
	.st3{font-size:24px;}
</style>
<polyline class="st0" points="81.72,218.1 135.41,193.28 184.06,138.1 243.45,93.66 258.37,33.49 272.7,13.5 "/>
<polyline class="st0" points="153.43,93.66 184.06,138.1 227.99,185.32 262.01,225.99 279.72,244.57 "/>
<circle class="st1" cx="135.41" cy="193.28" r="4.28"/>
<circle class="st1" cx="272.7" cy="13.5" r="3.51"/>
<circle class="st1" cx="153.43" cy="93.66" r="3.27"/>
<circle class="st1" cx="184.06" cy="138.1" r="4.25"/>
<circle class="st1" cx="262.01" cy="225.99" r="3.64"/>
<circle class="st1" cx="279.72" cy="244.57" r="3.51"/>
<circle class="st1" cx="227.99" cy="185.32" r="3.68"/>
<circle class="st1" cx="243.45" cy="93.66" r="3.27"/>
<circle class="st1" cx="81.72" cy="218.1" r="4.25"/>
<ellipse transform="matrix(0.1602 -0.9871 0.9871 0.1602 183.9262 283.1593)" class="st1" cx="258.37" cy="33.49" rx="3.64" ry="3.64"/>
<text transform="matrix(1 0 0 1 138.2683 351.7456)" class="st1 st2 st3">Cygnus</text>
</svg>
