<?xml version="1.0" encoding="utf-8"?>
<!-- Generator: Adobe Illustrator 25.4.5, SVG Export Plug-In . SVG Version: 6.00 Build 0)  -->
<svg version="1.1" id="Layer_1" xmlns="http://www.w3.org/2000/svg" xmlns:xlink="http://www.w3.org/1999/xlink" x="0px" y="0px"
	 viewBox="0 0 360 360" style="enable-background:new 0 0 360 360;" xml:space="preserve">
<style type="text/css">
	.st0{fill:#D1D3D4;}
</style>
<circle class="st0" cx="118.11" cy="171.22" r="4.96"/>
<circle class="st0" cx="41.35" cy="122.43" r="2.46"/>
<circle class="st0" cx="277.54" cy="267.76" r="4.46"/>
<circle class="st0" cx="216.04" cy="261.06" r="2.23"/>
<circle class="st0" cx="266.14" cy="98.25" r="2.36"/>
<circle class="st0" cx="58.31" cy="62.16" r="1.75"/>
<circle class="st0" cx="195.2" cy="228.21" r="2.48"/>
<circle class="st0" cx="239.1" cy="72.09" r="3.22"/>
<circle class="st0" cx="189.25" cy="144.25" r="3.47"/>
<circle class="st0" cx="207.78" cy="318.12" r="2.23"/>
<circle class="st0" cx="271.84" cy="110.71" r="1.61"/>
<circle class="st0" cx="277.54" cy="144.25" r="2.36"/>
<circle class="st0" cx="273.08" cy="155.91" r="1.24"/>
<circle class="st0" cx="202.7" cy="214.68" r="2.85"/>
<circle class="st0" cx="220.25" cy="267.26" r="2.98"/>
<circle class="st0" cx="223.23" cy="273.21" r="1.98"/>
<circle class="st0" cx="28.62" cy="76.29" r="1.85"/>
<circle class="st0" cx="58.31" cy="114.37" r="2.72"/>
<circle class="st0" cx="258.44" cy="78.53" r="2.24"/>
<circle class="st0" cx="81.71" cy="154.33" r="2.98"/>
<circle class="st0" cx="189.25" cy="238.11" r="2.23"/>
<circle class="st0" cx="149.08" cy="124.01" r="4.22"/>
</svg>
