<?xml version="1.0" encoding="utf-8"?>
<!-- Generator: Adobe Illustrator 25.4.5, SVG Export Plug-In . SVG Version: 6.00 Build 0)  -->
<svg version="1.1" id="Layer_1" xmlns="http://www.w3.org/2000/svg" xmlns:xlink="http://www.w3.org/1999/xlink" x="0px" y="0px"
	 viewBox="0 0 360 360" style="enable-background:new 0 0 360 360;" xml:space="preserve">
<style type="text/css">
	.st0{fill:#D1D3D4;}
</style>
<circle class="st0" cx="145.01" cy="109.08" r="4.78"/>
<circle class="st0" cx="71.01" cy="62.05" r="2.37"/>
<circle class="st0" cx="298.7" cy="202.15" r="4.3"/>
<circle class="st0" cx="239.41" cy="195.69" r="2.15"/>
<circle class="st0" cx="287.71" cy="38.74" r="2.28"/>
<circle class="st0" cx="87.36" cy="3.95" r="1.69"/>
<circle class="st0" cx="219.32" cy="164.02" r="2.39"/>
<circle class="st0" cx="261.64" cy="13.52" r="3.1"/>
<circle class="st0" cx="213.59" cy="83.08" r="3.35"/>
<circle class="st0" cx="231.45" cy="250.7" r="2.15"/>
<circle class="st0" cx="293.21" cy="50.75" r="1.55"/>
<circle class="st0" cx="298.7" cy="83.08" r="2.28"/>
<circle class="st0" cx="294.4" cy="94.32" r="1.2"/>
<circle class="st0" cx="226.55" cy="150.98" r="2.75"/>
<circle class="st0" cx="243.47" cy="201.67" r="2.87"/>
<circle class="st0" cx="246.34" cy="207.4" r="1.91"/>
<circle class="st0" cx="58.74" cy="17.57" r="1.78"/>
<circle class="st0" cx="87.36" cy="54.28" r="2.62"/>
<circle class="st0" cx="280.29" cy="19.73" r="2.16"/>
<circle class="st0" cx="109.92" cy="92.8" r="2.87"/>
<circle class="st0" cx="213.59" cy="173.57" r="2.15"/>
<circle class="st0" cx="174.86" cy="63.57" r="4.07"/>
</svg>
