<?xml version="1.0" encoding="utf-8"?>
<!-- Generator: Adobe Illustrator 25.4.5, SVG Export Plug-In . SVG Version: 6.00 Build 0)  -->
<svg version="1.1" id="Layer_1" xmlns="http://www.w3.org/2000/svg" xmlns:xlink="http://www.w3.org/1999/xlink" x="0px" y="0px"
	 viewBox="0 0 360 360" style="enable-background:new 0 0 360 360;" xml:space="preserve">
<style type="text/css">
	.st0{fill:#D1D3D4;}
</style>
<circle class="st0" cx="174.47" cy="65.59" r="4.17"/>
<circle class="st0" cx="241.93" cy="4.41" r="3.41"/>
<circle class="st0" cx="249.95" cy="34.82" r="3.75"/>
<ellipse transform="matrix(0.1602 -0.9871 0.9871 0.1602 55.4895 391.9401)" class="st0" cx="258.08" cy="163.36" rx="2.74" ry="2.74"/>
<circle class="st0" cx="106.45" cy="166.1" r="3.18"/>
<circle class="st0" cx="95.13" cy="61.84" r="4.19"/>
<circle class="st0" cx="140.41" cy="92.36" r="3.04"/>
<circle class="st0" cx="244.54" cy="176.79" r="2.71"/>
<ellipse transform="matrix(0.1602 -0.9871 0.9871 0.1602 55.4896 391.9402)" class="st0" cx="258.08" cy="163.36" rx="2.92" ry="2.92"/>
<circle class="st0" cx="141.1" cy="143.57" r="3.58"/>
<circle class="st0" cx="140.41" cy="247.26" r="3.21"/>
<circle class="st0" cx="100.09" cy="207.74" r="3.18"/>
<circle class="st0" cx="230.47" cy="151.25" r="4.22"/>
<circle class="st0" cx="100.87" cy="207.74" r="2.4"/>
<circle class="st0" cx="218.17" cy="174.08" r="2.5"/>
<circle class="st0" cx="223.85" cy="108.49" r="3.18"/>
<circle class="st0" cx="215.27" cy="69.77" r="2.58"/>
<circle class="st0" cx="289.69" cy="65.63" r="3.78"/>
<circle class="st0" cx="112" cy="247.26" r="4.46"/>
<circle class="st0" cx="174.47" cy="65.63" r="4.13"/>
<circle class="st0" cx="71.02" cy="89.32" r="2.74"/>
<circle class="st0" cx="212.12" cy="31.07" r="3.55"/>
</svg>
