<?xml version="1.0" encoding="utf-8"?>
<!-- Generator: Adobe Illustrator 25.4.5, SVG Export Plug-In . SVG Version: 6.00 Build 0)  -->
<svg version="1.1" id="Layer_1" xmlns="http://www.w3.org/2000/svg" xmlns:xlink="http://www.w3.org/1999/xlink" x="0px" y="0px"
	 viewBox="0 0 360 360" style="enable-background:new 0 0 360 360;" xml:space="preserve">
<style type="text/css">
	.st0{fill:none;stroke:#B1B3B6;stroke-width:0.25;stroke-miterlimit:10;}
	.st1{fill:#D1D3D4;}
	.st2{font-family:'Futura-Medium';}
	.st3{font-size:24px;}
</style>
<polyline class="st0" points="95.13,61.43 71.02,89.32 140.41,92.36 174.47,66.03 212.12,31.07 241.83,4.41 249.95,34.82 
	215.27,69.76 174.47,66.03 215.27,69.76 289.69,65.63 215.27,69.76 223.85,108.49 230.47,151.25 244.54,176.79 258.08,163.36 
	244.54,176.79 217.84,174.08 244.54,176.79 230.47,151.25 106.45,166.1 140.41,92.36 106.45,166.1 100.09,207.74 112,247.26 
	140.41,247.26 "/>
<circle class="st1" cx="174.47" cy="65.59" r="4.17"/>
<circle class="st1" cx="241.93" cy="4.41" r="3.41"/>
<circle class="st1" cx="249.95" cy="34.82" r="3.75"/>
<circle class="st1" cx="258.08" cy="163.36" r="2.74"/>
<circle class="st1" cx="106.45" cy="166.1" r="3.18"/>
<circle class="st1" cx="95.13" cy="61.84" r="4.19"/>
<circle class="st1" cx="140.41" cy="92.36" r="3.04"/>
<circle class="st1" cx="244.54" cy="176.79" r="2.71"/>
<circle class="st1" cx="258.08" cy="163.36" r="2.92"/>
<circle class="st1" cx="141.1" cy="143.57" r="3.58"/>
<circle class="st1" cx="140.41" cy="247.26" r="3.21"/>
<circle class="st1" cx="100.09" cy="207.74" r="3.18"/>
<circle class="st1" cx="230.47" cy="151.25" r="4.22"/>
<circle class="st1" cx="100.87" cy="207.74" r="2.4"/>
<circle class="st1" cx="218.17" cy="174.08" r="2.5"/>
<circle class="st1" cx="223.85" cy="108.49" r="3.18"/>
<circle class="st1" cx="215.27" cy="69.77" r="2.58"/>
<circle class="st1" cx="289.69" cy="65.63" r="3.78"/>
<circle class="st1" cx="112" cy="247.26" r="4.46"/>
<circle class="st1" cx="174.47" cy="65.63" r="4.13"/>
<circle class="st1" cx="71.02" cy="89.32" r="2.74"/>
<circle class="st1" cx="212.12" cy="31.07" r="3.55"/>
<text transform="matrix(1 0 0 1 138.3929 353.1426)" class="st1 st2 st3">Perseus</text>
</svg>
