<?xml version="1.0" encoding="utf-8"?>
<!-- Generator: Adobe Illustrator 25.4.5, SVG Export Plug-In . SVG Version: 6.00 Build 0)  -->
<svg version="1.1" id="Layer_1" xmlns="http://www.w3.org/2000/svg" xmlns:xlink="http://www.w3.org/1999/xlink" x="0px" y="0px"
	 viewBox="0 0 360 360" style="enable-background:new 0 0 360 360;" xml:space="preserve">
<style type="text/css">
	.st0{fill:#D1D3D4;}
</style>
<circle class="st0" cx="174.7" cy="108.09" r="5.3"/>
<circle class="st0" cx="260.52" cy="30.26" r="4.34"/>
<circle class="st0" cx="270.72" cy="68.94" r="4.77"/>
<circle class="st0" cx="281.06" cy="232.46" r="3.48"/>
<circle class="st0" cx="88.18" cy="235.94" r="4.05"/>
<circle class="st0" cx="73.78" cy="103.32" r="5.33"/>
<circle class="st0" cx="131.38" cy="142.14" r="3.87"/>
<circle class="st0" cx="263.84" cy="249.54" r="3.45"/>
<circle class="st0" cx="281.06" cy="232.46" r="3.71"/>
<circle class="st0" cx="132.25" cy="207.28" r="4.56"/>
<circle class="st0" cx="131.38" cy="339.18" r="4.08"/>
<circle class="st0" cx="80.08" cy="288.91" r="4.05"/>
<circle class="st0" cx="245.94" cy="217.05" r="5.37"/>
<circle class="st0" cx="81.08" cy="288.91" r="3.05"/>
<circle class="st0" cx="230.29" cy="246.1" r="3.18"/>
<circle class="st0" cx="237.52" cy="162.66" r="4.05"/>
<circle class="st0" cx="226.6" cy="113.4" r="3.28"/>
<circle class="st0" cx="321.27" cy="108.13" r="4.81"/>
<circle class="st0" cx="95.23" cy="339.18" r="5.67"/>
<circle class="st0" cx="174.7" cy="108.13" r="5.26"/>
<circle class="st0" cx="43.11" cy="138.27" r="3.48"/>
<circle class="st0" cx="222.6" cy="64.17" r="4.51"/>
</svg>
