<?xml version="1.0" encoding="utf-8"?>
<!-- Generator: Adobe Illustrator 25.4.5, SVG Export Plug-In . SVG Version: 6.00 Build 0)  -->
<svg version="1.1" id="Layer_1" xmlns="http://www.w3.org/2000/svg" xmlns:xlink="http://www.w3.org/1999/xlink" x="0px" y="0px"
	 viewBox="0 0 360 360" style="enable-background:new 0 0 360 360;" xml:space="preserve">
<style type="text/css">
	.st0{fill:none;stroke:#B1B3B6;stroke-width:0.25;stroke-miterlimit:10;}
	.st1{fill:#D1D3D4;}
	.st2{font-family:'Futura-Medium';}
	.st3{font-size:24px;}
</style>
<g>
	<polyline class="st0" points="26.82,85.03 66.4,65.13 128.1,68.76 196.56,52.33 267.93,28.38 324.49,28.38 262.56,65.13 
		199.83,91.34 149.17,94.61 143.28,144.99 190.42,163.19 244.42,180.36 254.98,163.19 	"/>
	<polyline class="st0" points="185.5,249.35 182.7,231.21 143.28,144.99 	"/>
	<polyline class="st0" points="128.1,68.76 149.17,94.61 199.83,91.34 196.56,52.33 267.93,28.38 262.56,65.13 289.59,108.92 
		320.63,125.21 332.34,108.06 	"/>
</g>
<circle class="st1" cx="128.1" cy="68.76" r="3.63"/>
<circle class="st1" cx="320.63" cy="125.21" r="3.33"/>
<circle class="st1" cx="199.83" cy="91.34" r="3.27"/>
<ellipse transform="matrix(0.1602 -0.9871 0.9871 0.1602 156.2172 313.8684)" class="st1" cx="262.57" cy="65.13" rx="3.86" ry="3.86"/>
<circle class="st1" cx="332.34" cy="108.06" r="2.38"/>
<circle class="st1" cx="196.85" cy="52.33" r="4.29"/>
<circle class="st1" cx="26.82" cy="85.03" r="3.04"/>
<circle class="st1" cx="143.28" cy="144.99" r="2.8"/>
<circle class="st1" cx="324.49" cy="28.38" r="3.86"/>
<circle class="st1" cx="190.42" cy="163.19" r="2.3"/>
<circle class="st1" cx="244.42" cy="180.36" r="2.8"/>
<circle class="st1" cx="267.93" cy="28.38" r="3.43"/>
<circle class="st1" cx="66.4" cy="65.13" r="2.51"/>
<circle class="st1" cx="254.98" cy="163.19" r="2.56"/>
<circle class="st1" cx="185.5" cy="249.35" r="2.11"/>
<circle class="st1" cx="182.7" cy="231.21" r="2.8"/>
<circle class="st1" cx="289.59" cy="108.92" r="3.86"/>
<circle class="st1" cx="149.17" cy="94.61" r="3.09"/>
<text transform="matrix(1 0 0 1 114.4652 351.7801)" class="st1 st2 st3">Ursa Major</text>
</svg>
